<?xml version="1.0" encoding="UTF-8" standalone="no"?>
<!-- Created with Inkscape (http://www.inkscape.org/) -->

<svg
   width="73.679527mm"
   height="16.371197mm"
   viewBox="0 0 73.679527 16.371197"
   version="1.1"
   id="svg1117"
   inkscape:version="1.1 (c68e22c387, 2021-05-23)"
   sodipodi:docname="logo_maddog.svg"
   xmlns:inkscape="http://www.inkscape.org/namespaces/inkscape"
   xmlns:sodipodi="http://sodipodi.sourceforge.net/DTD/sodipodi-0.dtd"
   xmlns="http://www.w3.org/2000/svg"
   xmlns:svg="http://www.w3.org/2000/svg">
  <sodipodi:namedview
     id="namedview1119"
     pagecolor="#ffffff"
     bordercolor="#666666"
     borderopacity="1.0"
     inkscape:pageshadow="2"
     inkscape:pageopacity="0.0"
     inkscape:pagecheckerboard="0"
     inkscape:document-units="mm"
     showgrid="false"
     fit-margin-top="2"
     fit-margin-left="2"
     fit-margin-right="2"
     fit-margin-bottom="2"
     lock-margins="true"
     inkscape:zoom="0.72337262"
     inkscape:cx="189.39064"
     inkscape:cy="-100.22497"
     inkscape:window-width="2400"
     inkscape:window-height="1271"
     inkscape:window-x="2391"
     inkscape:window-y="-9"
     inkscape:window-maximized="1"
     inkscape:current-layer="layer1" />
  <defs
     id="defs1114">
    <rect
       x="212.89166"
       y="727.14948"
       width="155.52151"
       height="101.60739"
       id="rect11975-2-4-1" />
  </defs>
  <g
     inkscape:label="Calque 1"
     inkscape:groupmode="layer"
     id="layer1"
     transform="translate(-54.601122,-174.69618)">
    <path
       style="fill:#ffffff;fill-opacity:0.503195;stroke-width:0.015971"
       d="m 57.192901,183.13547 c -0.36262,-0.36613 -0.519233,-0.54359 -0.572971,-0.64925 -0.02648,-0.0521 -0.02625,-0.0546 0.0087,-0.0918 0.107139,-0.11404 1.11458,-0.72823 2.426096,-1.47907 1.424309,-0.8154 2.270301,-1.27073 3.066432,-1.65041 2.656848,-1.26705 4.201348,-1.59503 6.651918,-1.41249 1.767241,0.13163 3.166618,0.52013 4.879142,1.35457 l 0.295467,0.14396 -0.08784,8.1e-4 c -0.142765,0.002 -0.414341,0.0613 -0.521688,0.1136 -0.05416,0.0264 -0.12079,0.0734 -0.148091,0.10452 -0.03194,0.0364 -0.07654,0.0646 -0.125142,0.079 -0.13427,0.04 -0.24337,0.11843 -0.338498,0.24336 -0.04863,0.0638 -0.13508,0.15274 -0.192179,0.19759 -0.174851,0.13734 -0.266437,0.23578 -0.310326,0.33358 -0.03062,0.0682 -0.05362,0.0968 -0.09011,0.11188 -0.05175,0.0214 -0.26305,0.24226 -0.336529,0.35165 -0.02384,0.0355 -0.06249,0.1146 -0.08583,0.17567 -0.02336,0.0611 -0.0517,0.11104 -0.06303,0.11104 -0.01135,0 -0.08941,-0.0212 -0.173512,-0.047 -1.74586,-0.5374 -3.940452,-0.77575 -5.664457,-0.61518 -2.397471,0.2233 -4.143089,0.6976 -5.901286,1.60347 -0.584722,0.30127 -0.960161,0.52245 -1.812708,1.06796 -0.267914,0.17142 -0.497896,0.3145 -0.511072,0.31794 -0.0147,0.003 -0.166378,-0.13755 -0.392507,-0.36588 z m 12.276192,-1.02859 c 6.01e-4,-0.0186 0.0048,-0.0225 0.0097,-0.01 4.98e-4,0.005 -0.0064,0.006 -0.0097,0.01 z"
       id="path45319-2"
       sodipodi:nodetypes="csssssscccssssssssscssscccccc"
       inkscape:export-filename="C:\Users\Agathe\Desktop\logo_maddog.png"
       inkscape:export-xdpi="200"
       inkscape:export-ydpi="200" />
    <path
       id="path45317-6"
       style="fill:#ffffff;fill-opacity:0.757189;stroke-width:0.015971"
       d="m 74.115307,179.91451 c -0.01303,0 -0.02612,8.2e-4 -0.03603,0.003 -0.01975,0.003 -0.0036,0.006 0.03603,0.006 0.03956,0 0.05578,-0.003 0.03596,-0.006 -0.0098,-0.002 -0.02294,-0.003 -0.03596,-0.003 z m 0.367359,0.0161 c -0.01302,0 -0.02612,8.2e-4 -0.03603,0.003 -0.01975,0.004 -0.0036,0.006 0.03603,0.006 0.03956,0 0.05578,-0.003 0.03596,-0.006 -0.0099,-0.002 -0.02299,-0.003 -0.03596,-0.003 z m 0.34936,0.0158 c -0.01159,-5e-5 -0.02389,8.1e-4 -0.03381,0.003 -0.01987,0.004 -0.0072,0.007 0.02792,0.007 0.03513,3.2e-4 0.05128,-0.003 0.03596,-0.006 -0.0076,-0.002 -0.01849,-0.003 -0.03008,-0.003 z m -7.724775,0.9423 c -0.313623,-6.1e-4 -0.601843,0.003 -0.772569,0.0124 -2.121222,0.11657 -4.104487,0.55592 -5.706784,1.26373 -0.506122,0.22358 -1.382047,0.66643 -2.00465,1.01365 -0.448364,0.25004 -0.814147,0.48388 -0.814147,0.52032 0,0.13338 1.043184,0.90553 2.052122,1.51878 0.319402,0.19409 0.424447,0.2508 0.455166,0.2448 0.02195,-0.004 0.697651,-0.14364 1.501392,-0.30996 1.893528,-0.39186 2.063485,-0.42521 2.746815,-0.53553 0.813288,-0.1313 1.909141,-0.26462 2.174365,-0.26466 0.07382,-2e-5 0.07452,-6e-4 0.295377,-0.22122 0.234945,-0.23473 0.249619,-0.24436 0.604718,-0.39807 0.144669,-0.0626 0.314668,-0.0604 0.455164,0.006 0.136785,0.0649 0.260186,0.1646 0.311197,0.25164 0.04083,0.0696 0.04185,0.0703 0.101151,0.0552 0.03789,-0.01 0.106542,-0.0562 0.186468,-0.12658 0.06953,-0.0612 0.148703,-0.12542 0.176238,-0.14242 0.09044,-0.0559 0.24098,-0.0842 0.402729,-0.0757 0.18504,0.01 0.316451,0.0676 0.424135,0.1874 l 0.07043,0.0785 0.101457,-0.0593 c 0.126818,-0.0737 0.189891,-0.15525 0.328885,-0.426 0.144362,-0.2812 0.218188,-0.39497 0.3081,-0.47533 0.09389,-0.0839 0.148894,-0.18089 0.265278,-0.46695 0.130198,-0.32002 0.285061,-0.60404 0.382874,-0.70215 0.04581,-0.0459 0.147196,-0.11762 0.235804,-0.16661 0.130835,-0.0724 0.157295,-0.0937 0.168474,-0.13559 0.0089,-0.0336 0.0073,-0.0535 -0.0054,-0.0611 -0.03638,-0.022 -0.61211,-0.16954 -0.918402,-0.2355 -0.651262,-0.14025 -1.316766,-0.2365 -2.172191,-0.31368 -0.238224,-0.0215 -0.831619,-0.0351 -1.354328,-0.0363 z m 5.267443,0.17374 c -6e-4,-6e-4 -0.0075,0.004 -0.02017,0.0139 -0.01537,0.0121 -0.02792,0.0249 -0.02792,0.0279 0,0.0131 0.01327,0.005 0.03411,-0.0217 0.0099,-0.0127 0.01477,-0.0193 0.01399,-0.0202 z m 6.004331,1.8368 c -0.0042,0 -0.06541,0.0576 -0.135279,0.12783 -0.06986,0.0702 -0.123215,0.12782 -0.118832,0.12782 0.0042,0 0.06511,-0.0576 0.134965,-0.12782 0.06987,-0.0702 0.123529,-0.12783 0.119146,-0.12783 z m -7.489901,0.51101 c -6.01e-4,-6e-4 -0.0072,0.004 -0.01987,0.0139 -0.01537,0.0121 -0.02792,0.0249 -0.02792,0.0279 0,0.0131 0.01327,0.005 0.03411,-0.0217 0.0099,-0.0127 0.01447,-0.0193 0.01363,-0.0202 z m 6.85013,0.11201 c -0.0042,0 -0.03614,0.0288 -0.07043,0.0639 -0.03428,0.0351 -0.05866,0.0639 -0.05428,0.0639 0.0042,0 0.03614,-0.0288 0.07043,-0.0639 0.03428,-0.0351 0.05866,-0.0639 0.05428,-0.0639 z m -0.273041,0.25535 c -0.0042,0 -0.02102,0.0144 -0.03693,0.032 -0.01597,0.0176 -0.02516,0.0319 -0.02077,0.0319 0.0042,0 0.02101,-0.0144 0.03693,-0.0319 0.01597,-0.0176 0.02516,-0.032 0.02077,-0.032 z m -0.156683,0.14396 c -6e-4,-6e-4 -0.0072,0.004 -0.01987,0.014 -0.01537,0.0121 -0.02792,0.0249 -0.02792,0.0279 0,0.013 0.01297,0.005 0.03381,-0.0221 0.0099,-0.0127 0.01477,-0.0191 0.01399,-0.0199 z m -8.180249,0.35122 c -0.0042,0 -0.02071,0.0144 -0.03663,0.032 -0.01591,0.0176 -0.02546,0.032 -0.02107,0.032 0.0042,0 0.02101,-0.0144 0.03693,-0.032 0.01597,-0.0176 0.02516,-0.032 0.02077,-0.032 z m -1.546699,0.0959 c -0.0042,0 -0.06875,0.0609 -0.143029,0.13559 -0.07428,0.0747 -0.131598,0.13589 -0.127215,0.13589 0.0042,0 0.06876,-0.0612 0.143036,-0.13589 0.07428,-0.0747 0.131591,-0.13559 0.127208,-0.13559 z m 1.403038,0.032 c -0.0042,0 -0.02101,0.0144 -0.03693,0.0319 -0.01591,0.0176 -0.02516,0.032 -0.02077,0.032 0.0042,0 0.02101,-0.0144 0.03693,-0.032 0.01597,-0.0176 0.02516,-0.0319 0.02077,-0.0319 z m 7.621145,0.0959 c -6e-4,-6e-4 -0.0072,0.004 -0.01987,0.014 -0.01537,0.0121 -0.02792,0.0249 -0.02792,0.0279 0,0.0131 0.01297,0.005 0.03381,-0.0221 0.0099,-0.0126 0.01477,-0.0191 0.01399,-0.0199 z m -2.738742,0.0453 c -0.0024,-0.002 -0.0042,0.0114 -0.0042,0.0345 0,0.0304 0.003,0.0433 0.0071,0.0279 0.0042,-0.0154 0.0042,-0.0405 0,-0.0558 -0.0012,-0.003 -0.0018,-0.006 -0.003,-0.006 z m -6.284816,0.14613 c -6.01e-4,-6e-4 -0.0072,0.004 -0.01987,0.014 -0.01537,0.0121 -0.02792,0.0249 -0.02792,0.0279 0,0.0131 0.01297,0.005 0.03381,-0.0217 0.0099,-0.0126 0.01477,-0.0193 0.01399,-0.0202 z m 3.480287,0.002 c -0.0054,-1.6e-4 -0.01189,8.2e-4 -0.01765,0.003 -0.01213,0.005 -0.0084,0.009 0.0099,0.01 0.01681,6e-4 0.02612,-0.003 0.02077,-0.009 -0.0024,-0.003 -0.0075,-0.004 -0.01303,-0.004 z m 0.113249,6e-4 c -0.0073,0 -0.01435,8.2e-4 -0.01987,0.003 -0.01099,0.005 -0.0024,0.008 0.01987,0.008 0.02197,0 0.03086,-0.003 0.01987,-0.008 -0.0054,-0.002 -0.01261,-0.003 -0.01987,-0.003 z m -0.272723,0.0155 c -0.0054,-1.7e-4 -0.01195,6e-4 -0.01771,0.003 -0.01273,0.005 -0.009,0.009 0.0096,0.01 0.01681,6e-4 0.02612,-0.003 0.02077,-0.008 -0.0024,-0.003 -0.0072,-0.004 -0.01273,-0.004 z m -0.143966,0.0158 c -0.0054,-1.6e-4 -0.01189,8.1e-4 -0.01771,0.003 -0.01272,0.005 -0.0086,0.009 0.0099,0.01 0.01681,6e-4 0.02612,-0.003 0.02077,-0.008 -0.0024,-0.003 -0.0075,-0.004 -0.01303,-0.005 z m -0.31803,0.0161 c -0.01303,0 -0.02612,8.1e-4 -0.03596,0.003 -0.01975,0.004 -0.0036,0.006 0.03596,0.006 0.03956,0 0.05578,-0.003 0.03603,-0.006 -0.0099,-0.002 -0.02294,-0.003 -0.03603,-0.003 z m -4.18429,0.0478 c -0.01302,0 -0.02612,8.2e-4 -0.03596,0.003 -0.01975,0.004 -0.0036,0.006 0.03596,0.006 0.03957,0 0.05578,-0.003 0.03603,-0.006 -0.0099,-0.002 -0.02299,-0.003 -0.03603,-0.003 z m -0.32144,0.0161 c -0.0087,-1.3e-4 -0.01795,6.1e-4 -0.02576,0.003 -0.01555,0.004 -0.0065,0.007 0.01987,0.008 0.02636,3.2e-4 0.03903,-0.003 0.02822,-0.007 -0.0054,-0.002 -0.01369,-0.003 -0.02234,-0.003 z m 5.064836,0.014 c -6.01e-4,-6e-4 -0.0075,0.004 -0.02017,0.014 -0.01537,0.0121 -0.02792,0.0249 -0.02792,0.0279 0,0.0131 0.01327,0.005 0.03411,-0.0221 0.01,-0.0127 0.01477,-0.0191 0.01399,-0.0199 z m -5.318323,0.002 c -0.0073,0 -0.01471,8.1e-4 -0.02017,0.003 -0.01099,0.005 -0.0018,0.008 0.02017,0.008 0.02197,0 0.03086,-0.003 0.01987,-0.008 -0.0054,-0.002 -0.01261,-0.003 -0.01987,-0.003 z m -0.207572,0.0159 c -0.0073,0 -0.01465,8.1e-4 -0.02017,0.003 -0.01099,0.005 -0.0018,0.008 0.01987,0.008 0.02197,0 0.03116,-0.003 0.02017,-0.008 -0.0054,-0.002 -0.01261,-0.003 -0.01987,-0.003 z m -0.161342,0.0158 c -0.0054,-1.6e-4 -0.01159,6e-4 -0.01735,0.003 -0.01273,0.005 -0.009,0.009 0.0096,0.01 0.01681,6e-4 0.02612,-0.003 0.02077,-0.008 -0.0024,-0.002 -0.0075,-0.004 -0.01303,-0.004 z m -0.159474,0.0158 c -0.0054,-1.6e-4 -0.01195,8.1e-4 -0.01771,0.003 -0.01273,0.005 -0.009,0.009 0.0096,0.01 0.01681,6e-4 0.02642,-0.003 0.02107,-0.008 -0.0024,-0.002 -0.0075,-0.004 -0.01303,-0.005 z m 8.741835,0.0996 c -0.0018,0.002 -0.003,0.007 -0.003,0.0168 -6e-4,0.0168 0.003,0.0262 0.0083,0.0208 0.0054,-0.006 0.006,-0.0188 0.0012,-0.0304 -0.0024,-0.006 -0.0048,-0.009 -0.0066,-0.007 z m 1.495495,0.0279 c -0.03764,-1e-5 -0.07597,6e-4 -0.105798,0.002 -0.05968,0.003 -0.01489,0.006 0.09928,0.006 0.114173,0 0.162819,-0.002 0.108283,-0.006 -0.02726,-0.002 -0.06414,-0.002 -0.101769,-0.002 z m -1.261865,0.0158 c -0.03764,-1e-5 -0.07597,8.1e-4 -0.105797,0.002 -0.05968,0.003 -0.01489,0.006 0.09928,0.006 0.114174,0 0.163131,-0.002 0.108596,-0.006 -0.02726,-0.002 -0.06445,-0.002 -0.102082,-0.002 z m -7.001222,0.002 c -0.0024,-0.003 -0.0048,0.0103 -0.0048,0.0367 -1.62e-4,0.035 0.003,0.0517 0.0071,0.0363 0.0042,-0.0152 0.0042,-0.044 3.18e-4,-0.0639 -0.0012,-0.005 -0.0018,-0.008 -0.003,-0.009 z m -0.558794,0.0221 c -0.0024,-0.003 -0.0042,0.0136 -0.0042,0.0465 h 3.19e-4 c -1.2e-4,0.044 0.003,0.0637 0.0065,0.044 0.0036,-0.0196 0.0042,-0.0554 3.18e-4,-0.0797 -0.0012,-0.006 -0.0018,-0.01 -0.003,-0.0109 z m 0.842066,0.0447 c -0.0018,0.002 -0.003,0.007 -0.003,0.0165 -6e-4,0.0168 0.003,0.0264 0.0084,0.0211 0.0054,-0.006 0.006,-0.0191 0.0012,-0.0307 -0.0024,-0.006 -0.0048,-0.009 -0.0065,-0.006 z m 1.312749,0.0332 c -0.003,-8.1e-4 -0.0048,0.008 -0.0048,0.0245 0,0.0224 0.0036,0.0311 0.008,0.0202 0.0042,-0.011 0.0042,-0.029 0,-0.0401 -0.0012,-0.003 -0.0024,-0.004 -0.003,-0.005 z m -1.328569,0.0946 c -0.0018,0.002 -0.003,0.007 -0.003,0.0165 -6e-4,0.0167 0.003,0.0264 0.0083,0.0211 0.0054,-0.006 0.006,-0.0192 0.0012,-0.0307 -0.0024,-0.006 -0.0048,-0.009 -0.0066,-0.006 z m 0.881782,0.0338 0.03879,0.0438 v 3.2e-4 c 0.02132,0.0242 0.04119,0.0438 0.04407,0.0438 0.01249,0 0.0024,-0.0128 -0.03879,-0.049 z m -1.166298,0.15917 c -0.003,-8.2e-4 -0.0048,0.008 -0.0048,0.0245 0,0.0223 0.0036,0.0308 0.008,0.0199 0.0042,-0.011 0.0042,-0.0288 0,-0.0397 -0.0012,-0.003 -0.0024,-0.004 -0.003,-0.005 z m 2.124723,0.1238 c -0.03999,6e-4 -0.03746,0.003 0.01585,0.0124 0.03513,0.006 0.0927,0.0117 0.127833,0.0118 0.06064,1.1e-4 0.05998,-6e-4 -0.01585,-0.0124 -0.04389,-0.006 -0.101475,-0.0122 -0.127826,-0.0118 z m -1.717034,0.0285 c -6e-4,6e-4 0.0042,0.007 0.01399,0.0199 0.01207,0.0154 0.02456,0.0279 0.02792,0.0279 0.01315,0 0.0048,-0.0129 -0.02174,-0.0338 -0.01267,-0.01 -0.01934,-0.0148 -0.02017,-0.014 z m 0.334163,0.1297 c -0.0054,-1.7e-4 -0.01189,6e-4 -0.01771,0.003 -0.01273,0.005 -0.009,0.009 0.0096,0.01 0.01681,6e-4 0.02642,-0.003 0.02107,-0.008 -0.0024,-0.003 -0.0075,-0.004 -0.01303,-0.004 z m 1.965867,0.0139 c -6.01e-4,6e-4 0.0042,0.007 0.01399,0.0202 0.02089,0.0267 0.03381,0.0352 0.03381,0.0221 0,-0.003 -0.01255,-0.0161 -0.02792,-0.0282 -0.01267,-0.01 -0.01904,-0.0148 -0.01987,-0.0139 z m 1.277686,0.0341 c -0.0073,0 -0.01465,8.1e-4 -0.02017,0.003 -0.01099,0.005 -0.0018,0.008 0.02017,0.008 0.02197,0 0.03086,-0.003 0.01987,-0.008 -0.0054,-0.002 -0.01261,-0.003 -0.01987,-0.003 z m 0.19144,0.0161 c -0.0073,0 -0.01435,8.1e-4 -0.01987,0.003 -0.01099,0.005 -0.0018,0.008 0.01987,0.008 0.02197,0 0.03116,-0.003 0.02017,-0.008 -0.0054,-0.002 -0.01291,-0.003 -0.02017,-0.003 z m 0.140243,0.003 c -0.0064,6e-4 -0.0048,0.004 0.0036,0.0103 0.01315,0.009 0.04479,0.0166 0.07043,0.0168 0.06137,3.1e-4 0.04851,-0.009 -0.03074,-0.0223 -0.02287,-0.004 -0.03704,-0.006 -0.04341,-0.005 z m -4.125035,0.13062 0.03044,0.0359 c 0.02858,0.0334 0.04155,0.0432 0.04155,0.0304 0,-0.003 -0.01621,-0.0192 -0.03596,-0.0359 z m 0.782811,0.0161 0.03038,0.0359 c 0.02858,0.0334 0.04125,0.0431 0.04125,0.0304 0,-0.003 -0.01621,-0.0192 -0.03596,-0.0359 z m 5.724162,0.12163 c -0.0054,-1.6e-4 -0.01195,6e-4 -0.01771,0.003 -0.01273,0.005 -0.009,0.009 0.0096,0.01 0.01681,6e-4 0.02642,-0.003 0.02107,-0.008 -0.0024,-0.002 -0.0075,-0.004 -0.01303,-0.004 z m -0.174376,0.0165 c -0.0072,0 -0.01435,8.1e-4 -0.01987,0.003 -0.01099,0.005 -0.0018,0.008 0.01987,0.008 0.02197,0 0.03086,-0.003 0.01987,-0.008 -0.0054,-0.002 -0.0126,-0.003 -0.01987,-0.003 z m -5.390305,0.006 0.03038,0.036 c 0.01675,0.0197 0.03296,0.0359 0.03596,0.0359 0.01279,0 0.0036,-0.013 -0.03038,-0.0415 z m 1.172506,0.0577 c -0.0054,-1.6e-4 -0.01159,8.1e-4 -0.01735,0.003 -0.01273,0.005 -0.009,0.009 0.0096,0.01 0.01681,6e-4 0.02612,-0.003 0.02077,-0.008 -0.0024,-0.002 -0.0075,-0.004 -0.01303,-0.005 z m -2.561892,0.1179 0.03038,0.0359 c 0.01675,0.0197 0.03296,0.0359 0.03596,0.0359 0.01279,0 0.0036,-0.013 -0.03038,-0.0415 z m 1.795525,0.026 c -0.0054,-1.6e-4 -0.01189,6e-4 -0.01771,0.003 -0.01273,0.005 -0.009,0.009 0.0096,0.01 0.01681,6e-4 0.02612,-0.003 0.02077,-0.008 -0.0024,-0.002 -0.0072,-0.004 -0.01273,-0.004 z m 0.143654,0.0158 c -0.0054,-1.5e-4 -0.01189,6e-4 -0.01771,0.003 -0.01273,0.005 -0.009,0.009 0.0096,0.01 0.01681,6e-4 0.02642,-0.003 0.02107,-0.008 -0.0024,-0.003 -0.0075,-0.004 -0.01303,-0.004 z m 2.19733,0.0217 0.03879,0.044 c 0.03621,0.0411 0.049,0.051 0.049,0.0385 0,-0.003 -0.01957,-0.0225 -0.04377,-0.0438 z m 0.119764,0.0105 c -0.0073,0 -0.01435,8.2e-4 -0.01987,0.003 -0.01099,0.005 -0.0024,0.008 0.01987,0.008 0.02197,0 0.0308,-0.003 0.01987,-0.008 -0.0054,-0.002 -0.01261,-0.003 -0.01987,-0.003 z m 0.191746,0.0161 c -0.0073,0 -0.01471,8.2e-4 -0.02017,0.003 -0.01099,0.005 -0.0018,0.008 0.02017,0.008 0.02197,0 0.03086,-0.003 0.01987,-0.008 -0.0054,-0.002 -0.01261,-0.003 -0.01987,-0.003 z m 0.175613,0.0158 c -0.0073,0 -0.01435,8.1e-4 -0.01987,0.003 -0.01099,0.005 -0.0024,0.008 0.01987,0.008 0.02197,0 0.03086,-0.003 0.01987,-0.008 -0.0054,-0.002 -0.01261,-0.003 -0.01987,-0.003 z m 1.547935,0.0472 c -0.0054,-1.6e-4 -0.01195,8.2e-4 -0.01771,0.003 v -3.2e-4 c -0.01272,0.005 -0.009,0.009 0.0096,0.01 0.01681,6e-4 0.02642,-0.003 0.02107,-0.009 -0.0024,-0.002 -0.0075,-0.004 -0.01303,-0.004 z m -6.027914,0.006 0.03879,0.044 c 0.02131,0.0242 0.04119,0.0438 0.04407,0.0438 0.01249,0 0.0024,-0.0128 -0.03878,-0.049 z m 5.804209,0.01 c -0.0054,-1.6e-4 -0.01195,6e-4 -0.01771,0.003 -0.01273,0.005 -0.009,0.009 0.0096,0.01 0.01681,6e-4 0.02642,-0.003 0.02107,-0.008 -0.0024,-0.003 -0.0075,-0.004 -0.01303,-0.004 z m -1.068571,0.20788 c -0.0073,0 -0.01471,8.1e-4 -0.02017,0.003 -0.01099,0.005 -0.0018,0.008 0.02017,0.008 0.02197,0 0.03081,-0.003 0.01987,-0.008 -0.0054,-0.002 -0.0126,-0.003 -0.01987,-0.003 z m -0.175919,0.0161 c -0.0073,0 -0.01435,8.1e-4 -0.01987,0.003 -0.01099,0.005 -0.0024,0.008 0.01987,0.008 0.02192,0 0.03116,-0.003 0.02017,-0.008 -0.0054,-0.002 -0.01291,-0.003 -0.02017,-0.003 z m -2.139931,0.0155 c -0.01015,0 -0.02024,8.1e-4 -0.02792,0.003 -0.01537,0.004 -0.003,0.007 0.02792,0.007 0.03074,0 0.04329,-0.003 0.02792,-0.007 -0.0077,-0.002 -0.01777,-0.003 -0.02792,-0.003 z m 1.980451,3.2e-4 c -0.0072,0 -0.01471,8.1e-4 -0.02017,0.003 -0.01099,0.005 -0.0018,0.008 0.02017,0.008 0.02197,0 0.03081,-0.004 0.01987,-0.008 -0.0054,-0.002 -0.0126,-0.003 -0.01987,-0.003 z m -1.517218,0.11138 c -0.01015,0 -0.02054,8.1e-4 -0.02822,0.003 -0.01537,0.004 -0.0024,0.007 0.02822,0.007 0.03074,0 0.04329,-0.003 0.02792,-0.007 -0.0077,-0.002 -0.01777,-0.003 -0.02792,-0.003 z m 0.301272,0.0161 c -0.01159,-5e-5 -0.02389,8.1e-4 -0.03381,0.003 -0.01987,0.004 -0.0072,0.007 0.02792,0.007 0.03513,3.2e-4 0.05128,-0.003 0.03603,-0.006 -0.0076,-0.002 -0.01855,-0.003 -0.03008,-0.003 z m 0.413279,0.0105 c -0.03999,4.8e-4 -0.09186,0.003 -0.139619,0.01 v -3.1e-4 c -0.02197,0.002 0.01567,0.006 0.08377,0.007 0.06808,8.1e-4 0.123792,-0.003 0.123798,-0.009 6e-6,-0.006 -0.02798,-0.008 -0.06795,-0.007 z m -1.259692,0.42072 c -0.01447,-1e-4 -0.02942,6e-4 -0.04155,0.002 -0.02426,0.004 -0.0082,0.007 0.03566,0.007 0.04389,1.3e-4 0.0637,-0.003 0.04407,-0.006 -0.0098,-0.002 -0.02371,-0.002 -0.03818,-0.003 z m -3.720751,0.0797 c -0.0054,-1.6e-4 -0.01159,6e-4 -0.01735,0.003 -0.01272,0.005 -0.009,0.009 0.0096,0.01 0.01681,6.1e-4 0.02612,-0.003 0.02077,-0.008 -0.0024,-0.003 -0.0075,-0.004 -0.01303,-0.004 z m 0.127833,0.0161 c -0.0054,-1.6e-4 -0.01195,6e-4 -0.01771,0.003 -0.01272,0.005 -0.0086,0.009 0.0099,0.01 0.01681,6e-4 0.02612,-0.003 0.02077,-0.008 -0.0024,-0.003 -0.0075,-0.004 -0.01303,-0.004 z m 3.467259,0 c -0.01015,0 -0.02054,8.1e-4 -0.02822,0.003 -0.01537,0.004 -0.0024,0.007 0.02822,0.007 0.03074,0 0.04329,-0.003 0.02792,-0.007 -0.0077,-0.002 -0.01777,-0.003 -0.02792,-0.003 z m -3.339432,0.0158 c -0.0054,-1.7e-4 -0.01189,8.1e-4 -0.01765,0.003 v -3.2e-4 c -0.01273,0.005 -0.009,0.009 0.0096,0.01 0.01681,6e-4 0.02642,-0.003 0.02107,-0.009 -0.0024,-0.002 -0.0075,-0.004 -0.01303,-0.004 z m 3.065772,3.1e-4 c -0.0087,-1.4e-4 -0.01801,6e-4 -0.02576,0.003 -0.01555,0.004 -0.0065,0.007 0.01987,0.008 0.02636,3.1e-4 0.03903,-0.003 0.02822,-0.007 -0.0054,-0.002 -0.01363,-0.003 -0.02234,-0.003 z m -0.269625,0.0155 c -0.01015,0 -0.02024,8.2e-4 -0.02792,0.003 -0.01537,0.004 -0.003,0.007 0.02792,0.007 0.03074,0 0.04359,-0.003 0.02822,-0.007 -0.0077,-0.002 -0.01807,-0.003 -0.02822,-0.003 z m -2.652488,3.3e-4 c -0.0054,-1.6e-4 -0.01165,6e-4 -0.01735,0.003 -0.01273,0.005 -0.009,0.009 0.0096,0.01 0.01681,6e-4 0.02612,-0.003 0.02077,-0.008 -0.0024,-0.003 -0.0075,-0.004 -0.01303,-0.004 z m 2.349048,0.0158 c -0.01015,0 -0.02024,8.2e-4 -0.02792,0.003 -0.01537,0.004 -0.003,0.007 0.02792,0.007 0.0308,0 0.04329,-0.003 0.02792,-0.007 -0.0077,-0.002 -0.01777,-0.003 -0.02792,-0.003 z m -2.189261,3.3e-4 c -0.0054,-1.6e-4 -0.01195,6e-4 -0.01771,0.003 -0.01273,0.005 -0.009,0.009 0.0096,0.01 0.01681,6e-4 0.02642,-0.003 0.02107,-0.008 -0.0024,-0.003 -0.0075,-0.004 -0.01303,-0.004 z m 1.917775,0.0158 c -0.01015,0 -0.02024,8.2e-4 -0.02792,0.003 -0.01537,0.004 -0.003,0.007 0.02792,0.007 0.03074,0 0.04329,-0.003 0.02792,-0.007 -0.0077,-0.002 -0.01777,-0.003 -0.02792,-0.003 z m -1.740613,3.2e-4 c -0.0073,0 -0.01471,8.1e-4 -0.02017,0.003 -0.01099,0.005 -0.0018,0.008 0.02017,0.008 0.02197,0 0.03086,-0.003 0.01987,-0.008 -0.0054,-0.002 -0.01261,-0.003 -0.01987,-0.003 z m 1.453305,0.0155 c -0.01015,0 -0.02024,8.1e-4 -0.02792,0.003 -0.01537,0.004 -0.003,0.007 0.02792,0.007 0.03081,0 0.04329,-0.003 0.02792,-0.007 -0.0077,-0.002 -0.01777,-0.003 -0.02792,-0.003 z m -1.231772,3.2e-4 c -0.0087,-1.4e-4 -0.01795,6e-4 -0.02576,0.003 -0.01555,0.004 -0.0065,0.007 0.01987,0.008 0.02636,3.3e-4 0.03903,-0.003 0.02822,-0.007 -0.0054,-0.002 -0.01369,-0.003 -0.02234,-0.003 z m 0.958424,0.0159 c -0.0087,-1.4e-4 -0.01801,8.1e-4 -0.02576,0.003 v -3.2e-4 c -0.01555,0.004 -0.0068,0.007 0.01957,0.008 0.02636,3.1e-4 0.03903,-0.003 0.02822,-0.007 -0.0054,-0.002 -0.01333,-0.003 -0.02204,-0.003 z m -0.429417,3.1e-4 c -0.03038,0 -0.06072,6e-4 -0.08377,0.002 -0.04611,0.003 -0.0085,0.006 0.08377,0.006 0.09224,0 0.129892,-0.003 0.08377,-0.006 -0.02306,-8.2e-4 -0.05338,-0.002 -0.08377,-0.002 z"
       inkscape:export-filename="C:\Users\Agathe\Desktop\logo_maddog.png"
       inkscape:export-xdpi="200"
       inkscape:export-ydpi="200" />
    <path
       style="fill:#ffffff;fill-opacity:1;stroke-width:0.015971"
       d="m 66.872546,187.37117 c -0.690656,-0.0216 -1.468609,-0.11416 -2.100191,-0.24981 -1.620944,-0.34813 -3.950936,-1.17737 -3.909842,-1.3915 0.0038,-0.0196 0.04158,-0.0381 0.127276,-0.0625 0.542112,-0.15438 3.168854,-0.65881 4.054077,-0.77852 0.364435,-0.0493 1.533976,-0.12562 1.557914,-0.10168 0.0042,0.004 -1.74e-4,0.0289 -0.01033,0.0543 -0.01093,0.0273 -0.02149,0.18292 -0.02588,0.38153 l -0.0075,0.3354 0.08221,0.23157 c 0.09901,0.27893 0.121234,0.31759 0.291619,0.50734 0.09856,0.10976 0.198374,0.19575 0.386404,0.3329 0.242919,0.17718 0.626568,0.42394 0.706205,0.45421 0.02084,0.008 0.142387,0.0362 0.270124,0.0627 0.225867,0.047 0.24436,0.0483 0.672829,0.0483 0.407821,0 0.450216,0.002 0.570267,0.0359 l 0.129688,0.0359 -0.311437,0.0105 c -0.171284,0.006 -0.631251,0.0291 -1.02214,0.0518 -0.940515,0.0546 -0.996449,0.0561 -1.461345,0.0415 z m 3.169895,-0.62385 c -0.153068,-0.009 -0.241112,-0.0242 -0.375315,-0.0638 l -0.175338,-0.0517 -0.447189,0.003 c -0.426866,0.003 -0.455734,8.1e-4 -0.635255,-0.0378 -0.21778,-0.0474 -0.309595,-0.0975 -0.722279,-0.39358 -0.326273,-0.23412 -0.422291,-0.34221 -0.507176,-0.57099 l -0.06312,-0.17011 0.0077,-0.23197 0.0077,-0.23196 0.08851,-0.1753 c 0.0769,-0.15232 0.106987,-0.19346 0.229524,-0.31385 0.117019,-0.11498 0.164368,-0.14926 0.278115,-0.20137 0.113147,-0.0518 0.141732,-0.0594 0.163701,-0.0433 0.01465,0.0107 0.0266,0.0234 0.0266,0.0283 0,0.005 -0.06343,0.0594 -0.14097,0.12122 -0.117175,0.0934 -0.144386,0.1238 -0.161161,0.1798 -0.01267,0.0423 -0.05235,0.10109 -0.106578,0.15796 -0.08342,0.0875 -0.08639,0.0936 -0.08639,0.1798 0,0.0491 -0.0077,0.1448 -0.01717,0.21273 -0.01615,0.11612 -0.01471,0.13031 0.02444,0.23752 0.05428,0.14886 0.159144,0.27206 0.25321,0.29751 0.03693,0.01 0.107407,0.014 0.157187,0.009 l 0.09022,-0.009 0.06523,0.1001 c 0.104213,0.15996 0.294897,0.32154 0.475355,0.40281 0.129544,0.0584 0.17353,0.0701 0.298397,0.0793 l 0.146457,0.0109 0.223598,-0.084 c 0.122975,-0.0462 0.241562,-0.0829 0.263519,-0.0816 0.02492,0.002 0.06695,0.0309 0.111796,0.0783 0.117313,0.12376 0.317603,0.27959 0.471146,0.36657 0.113399,0.0642 0.177564,0.0885 0.303993,0.11517 0.08814,0.0186 0.200566,0.0337 0.249835,0.0337 0.08302,0 0.108968,0.0136 0.108968,0.0572 0,0.01 -0.378881,0.003 -0.60724,-0.0101 z m 1.193773,-0.12206 c -0.01621,-0.004 -0.04893,-0.053 -0.07656,-0.11393 -0.02654,-0.0586 -0.07024,-0.13406 -0.09717,-0.16768 l -0.049,-0.0611 0.06963,0.009 c 0.03831,0.005 0.163053,0.0168 0.27725,0.0264 l 0.207621,0.0173 0.255533,-0.0715 c 0.278013,-0.0779 0.527849,-0.17139 0.838482,-0.31398 0.254813,-0.11696 0.278433,-0.12123 0.392325,-0.0709 0.04971,0.0221 0.200181,0.0677 0.334391,0.10169 0.231751,0.0586 0.250658,0.061 0.375843,0.047 0.0725,-0.008 0.134041,-0.0126 0.136754,-0.01 0.0024,0.002 -0.119247,0.0461 -0.27103,0.0964 -0.159408,0.0528 -0.339542,0.12547 -0.426481,0.17194 -0.14199,0.0759 -0.160009,0.0813 -0.31821,0.0951 -0.217775,0.0191 -0.469729,0.0635 -0.806534,0.14248 -0.178621,0.0419 -0.359632,0.072 -0.529079,0.0882 -0.267752,0.0255 -0.267524,0.0255 -0.313797,0.0135 z m -1.168196,-0.7645 c -0.103564,-0.0206 -0.116539,-0.0281 -0.20621,-0.12034 -0.106428,-0.10945 -0.212953,-0.16672 -0.345565,-0.1858 l -0.08598,-0.0124 0.310255,-0.0762 c 0.358893,-0.0882 0.454748,-0.0937 0.748732,-0.0436 0.182878,0.0312 0.326135,0.0809 0.599639,0.20793 0.06149,0.0286 0.162111,0.0693 0.223598,0.0904 l 0.111796,0.0385 -0.07986,-0.008 c -0.310224,-0.032 -0.410216,-0.0289 -0.710396,0.0223 -0.162332,0.0277 -0.326748,0.0643 -0.365366,0.0814 -0.03861,0.017 -0.0747,0.0304 -0.08017,0.0295 -0.0054,-5.3e-4 -0.05968,-0.0114 -0.120472,-0.0234 z m -1.297607,-0.16697 c -0.122621,-0.0269 -0.230419,-0.1179 -0.360744,-0.30436 -0.04034,-0.0577 -0.09907,-0.12459 -0.130474,-0.14854 l -0.0571,-0.0436 v -0.14451 c 0,-0.1377 0.0024,-0.14886 0.0568,-0.23652 0.05235,-0.0848 0.0677,-0.0971 0.195649,-0.15663 0.07636,-0.0355 0.189152,-0.0765 0.25064,-0.091 0.104279,-0.0246 0.122543,-0.0359 0.27151,-0.16875 0.13798,-0.123 0.167592,-0.14242 0.217643,-0.14281 0.115391,-5.4e-4 0.102422,0.0312 -0.06589,0.16327 -0.141306,0.11084 -0.166818,0.13924 -0.250893,0.27929 -0.05145,0.0857 -0.113861,0.2016 -0.13864,0.25746 -0.03975,0.0896 -0.04383,0.11326 -0.03441,0.2007 0.007,0.0649 0.02654,0.12699 0.05668,0.17977 0.04251,0.0744 0.05566,0.0844 0.170726,0.1297 0.07408,0.0291 0.173302,0.0539 0.244468,0.0609 0.06588,0.006 0.105414,0.0146 0.08785,0.0179 -0.03884,0.007 -0.112498,0.0319 -0.311437,0.10385 -0.113236,0.041 -0.164559,0.0521 -0.20232,0.0438 z m 2.209122,-0.72243 c -0.09957,-0.0397 -0.118784,-0.0525 -0.0935,-0.0618 0.01753,-0.006 0.05818,-0.0381 0.09032,-0.0702 0.04533,-0.0453 0.08609,-0.066 0.181335,-0.0921 l 0.122843,-0.0336 -0.0626,-0.0151 c -0.04317,-0.0104 -0.144722,-0.007 -0.327402,0.0107 -0.145648,0.0142 -0.373874,0.0303 -0.507171,0.0359 -0.227452,0.01 -0.254723,0.007 -0.443197,-0.0345 -0.110457,-0.0246 -0.200836,-0.0507 -0.200836,-0.0578 0,-0.0161 0.111298,-0.0874 0.343379,-0.22011 0.09662,-0.0552 0.2188,-0.14081 0.271505,-0.1901 0.116779,-0.10922 0.251186,-0.31167 0.371148,-0.55903 0.07556,-0.15578 0.108463,-0.20414 0.206023,-0.30266 0.129929,-0.13121 0.21416,-0.27891 0.356138,-0.62445 0.04491,-0.10928 0.121289,-0.27261 0.169753,-0.36297 0.08247,-0.15374 0.09429,-0.1679 0.184512,-0.22077 0.05301,-0.0311 0.143227,-0.0763 0.200476,-0.10058 0.09121,-0.0387 0.110889,-0.0551 0.159072,-0.13265 0.03741,-0.0602 0.07224,-0.1547 0.108878,-0.29508 0.08257,-0.3164 0.138424,-0.44636 0.236945,-0.55133 0.0689,-0.0734 0.102861,-0.0956 0.190959,-0.12495 l 0.107161,-0.0357 0.04263,-0.14201 c 0.03825,-0.12737 0.0502,-0.14841 0.116336,-0.20417 0.04053,-0.0342 0.102693,-0.077 0.138099,-0.095 0.04605,-0.0235 0.09149,-0.0718 0.159546,-0.16938 0.05235,-0.0751 0.101871,-0.13681 0.110055,-0.13714 0.0082,-3.7e-4 0.07151,-0.0158 0.140735,-0.0345 0.1192,-0.0322 0.1291,-0.0384 0.187478,-0.11738 0.06109,-0.0827 0.0627,-0.0836 0.18253,-0.10294 0.09847,-0.0159 0.228185,-0.0145 0.699079,0.007 l 0.578174,0.0266 0.09675,0.065 c 0.443815,0.29846 1.178804,0.85073 2.52896,1.90025 0.52995,0.41195 0.961318,0.75533 0.958593,0.76306 -0.0068,0.0194 -0.90685,0.89449 -1.12352,1.09241 -0.24278,0.22175 -0.645702,0.56332 -0.789968,0.66968 -0.284978,0.2101 -0.381169,0.27707 -0.577844,0.40233 -0.182332,0.11611 -0.213037,0.13063 -0.245261,0.11595 -0.02624,-0.0119 -0.05205,-0.0114 -0.08977,0.002 -0.03626,0.0127 -0.322269,0.021 -0.9076,0.0266 -0.470065,0.004 -0.877604,0.0109 -0.905631,0.0143 -0.03926,0.005 -0.04893,5.3e-4 -0.04215,-0.0168 0.0048,-0.0126 -0.0024,-0.0402 -0.01639,-0.0613 -0.02798,-0.0427 -0.308339,-0.2009 -0.356073,-0.2009 -0.06458,0 -0.0973,0.0439 -0.124776,0.16744 l -0.02672,0.12004 h -0.08675 c -0.08217,0 -0.08675,-0.002 -0.08675,-0.0405 0,-0.0554 -0.02792,-0.0618 -0.156202,-0.0354 l -0.11026,0.0227 -0.01621,-0.043 c -0.01273,-0.0337 -0.06133,-0.0659 -0.224978,-0.14911 -0.114811,-0.0584 -0.224187,-0.10615 -0.243058,-0.10615 -0.06647,0 -0.119397,0.0775 -0.149945,0.21959 l -0.02834,0.13176 -0.585596,-8.1e-4 -0.585595,-8.1e-4 z m 2.996719,-0.37529 c 0.09808,-0.14368 0.130037,-0.25954 0.07158,-0.25954 -0.01135,0 -0.0565,0.0234 -0.100316,0.0521 -0.07339,0.0479 -0.08007,0.0576 -0.08472,0.12251 -0.01093,0.15291 0.04071,0.1916 0.113453,0.085 z m -0.379013,-0.21337 c 0.02497,-0.0483 0.0245,-0.0509 -0.01856,-0.0958 -0.02432,-0.0254 -0.05373,-0.0461 -0.0654,-0.0461 -0.01165,0 -0.03668,0.0319 -0.05566,0.0709 -0.04155,0.0855 -0.02389,0.12072 0.06038,0.12072 0.04377,0 0.05824,-0.009 0.07921,-0.0497 z"
       id="path45315-8"
       inkscape:export-filename="C:\Users\Agathe\Desktop\logo_maddog.png"
       inkscape:export-xdpi="200"
       inkscape:export-ydpi="200" />
    <text
       xml:space="preserve"
       transform="matrix(0.5298535,0,0,0.5298535,-28.561228,-210.73185)"
       id="text11973-9-3-2"
       style="font-size:16px;line-height:1.25;font-family:Roboto;-inkscape-font-specification:'Roboto, Normal';letter-spacing:1.65724px;white-space:pre;shape-inside:url(#rect11975-2-4-1);display:inline;fill:#5d87b8;fill-opacity:1"
       inkscape:export-filename="C:\Users\Agathe\Desktop\logo_maddog.png"
       inkscape:export-xdpi="200"
       inkscape:export-ydpi="200"><tspan
         x="212.89258"
         y="741.15039"
         id="tspan1256"><tspan
           style="font-weight:500;font-family:'Baloo Bhaina 2';-inkscape-font-specification:'Baloo Bhaina 2 Medium'"
           id="tspan1254">MADDOG</tspan></tspan></text>
    <text
       xml:space="preserve"
       style="font-size:5.87806px;line-height:0.85;font-family:Roboto;-inkscape-font-specification:'Roboto, Normal';display:inline;fill:#5d87b8;fill-opacity:1;stroke-width:0.367379"
       x="84.404434"
       y="187.86647"
       id="text26697-4-1-2"
       inkscape:export-filename="C:\Users\Agathe\Desktop\logo_maddog.png"
       inkscape:export-xdpi="200"
       inkscape:export-ydpi="200"><tspan
         sodipodi:role="line"
         style="font-style:normal;font-variant:normal;font-weight:normal;font-stretch:normal;font-family:'Baloo Bhaina 2';-inkscape-font-specification:'Baloo Bhaina 2, ';fill:#5d87b8;fill-opacity:1;stroke-width:0.367379"
         x="84.404434"
         y="187.86647"
         id="tspan15863-3">littoral  <tspan
   style="fill:#5d87b8;fill-opacity:1;stroke-width:0.367379"
   id="tspan21933-7" /></tspan></text>
    <text
       xml:space="preserve"
       style="font-size:5.87806px;line-height:0.85;font-family:Roboto;-inkscape-font-specification:'Roboto, Normal';display:inline;fill:#ffffff;fill-opacity:1;stroke-width:0.367379"
       x="103.1858"
       y="187.88"
       id="text26697-4-1-5-2"
       inkscape:export-filename="C:\Users\Agathe\Desktop\logo_maddog.png"
       inkscape:export-xdpi="200"
       inkscape:export-ydpi="200"><tspan
         sodipodi:role="line"
         style="font-style:normal;font-variant:normal;font-weight:normal;font-stretch:normal;font-family:'Baloo Bhaina 2';-inkscape-font-specification:'Baloo Bhaina 2, ';fill:#ffffff;fill-opacity:1;stroke-width:0.367379"
         x="103.1858"
         y="187.88"
         id="tspan15863-0-9">Bretagne</tspan></text>
  </g>
</svg>
