<?xml version="1.0" encoding="UTF-8" standalone="no"?>
<!-- Created with Inkscape (http://www.inkscape.org/) -->

<svg
   width="45.621887mm"
   height="14.135104mm"
   viewBox="0 0 45.621887 14.135104"
   version="1.1"
   id="svg1381"
   inkscape:version="1.1 (c68e22c387, 2021-05-23)"
   sodipodi:docname="maddog_logo.svg"
   xmlns:inkscape="http://www.inkscape.org/namespaces/inkscape"
   xmlns:sodipodi="http://sodipodi.sourceforge.net/DTD/sodipodi-0.dtd"
   xmlns="http://www.w3.org/2000/svg"
   xmlns:svg="http://www.w3.org/2000/svg">
  <sodipodi:namedview
     id="namedview1383"
     pagecolor="#ffffff"
     bordercolor="#666666"
     borderopacity="1.0"
     inkscape:pageshadow="2"
     inkscape:pageopacity="0.0"
     inkscape:pagecheckerboard="0"
     inkscape:document-units="mm"
     showgrid="false"
     fit-margin-top="2"
     fit-margin-left="2"
     fit-margin-right="2"
     fit-margin-bottom="2"
     inkscape:zoom="4.0920134"
     inkscape:cx="106.54901"
     inkscape:cy="-35.312689"
     inkscape:window-width="2400"
     inkscape:window-height="1271"
     inkscape:window-x="2391"
     inkscape:window-y="-9"
     inkscape:window-maximized="1"
     inkscape:current-layer="layer1" />
  <defs
     id="defs1378" />
  <g
     inkscape:label="Calque 1"
     inkscape:groupmode="layer"
     id="layer1"
     transform="translate(-76.67674,-105.95339)">
    <g
       aria-label="littoral"
       id="text22082-2"
       style="font-size:3.21075px;line-height:1.25;font-family:Roboto;-inkscape-font-specification:'Roboto, Normal';letter-spacing:0.401345px;display:inline;fill:#f79468;stroke-width:0.200671">
      <path
         d="m 78.968918,115.68364 v 2.37595 H 78.67674 v -2.37595 z"
         style="font-family:Poppins;-inkscape-font-specification:Poppins"
         id="path1646" />
      <path
         d="m 80.018829,116.01435 q -0.08348,0 -0.141273,-0.0578 -0.05779,-0.0578 -0.05779,-0.14127 0,-0.0835 0.05779,-0.14127 0.05779,-0.0578 0.141273,-0.0578 0.08027,0 0.134852,0.0578 0.05779,0.0578 0.05779,0.14127 0,0.0835 -0.05779,0.14127 -0.05458,0.0578 -0.134852,0.0578 z m 0.141273,0.28575 v 1.75949 h -0.292178 v -1.75949 z"
         style="font-family:Poppins;-inkscape-font-specification:Poppins"
         id="path1648" />
      <path
         d="m 81.415502,116.54091 v 1.03707 q 0,0.12843 0.05458,0.18301 0.05458,0.0514 0.189435,0.0514 h 0.21512 v 0.24722 h -0.263282 q -0.244017,0 -0.366025,-0.11237 -0.122009,-0.11238 -0.122009,-0.36924 v -1.03707 H 80.89536 v -0.24081 h 0.227963 v -0.44308 h 0.292179 v 0.44308 h 0.459137 v 0.24081 z"
         style="font-family:Poppins;-inkscape-font-specification:Poppins"
         id="path1650" />
      <path
         d="m 82.985555,116.54091 v 1.03707 q 0,0.12843 0.05458,0.18301 0.05458,0.0514 0.189435,0.0514 h 0.21512 v 0.24722 H 83.18141 q -0.244017,0 -0.366025,-0.11237 -0.122009,-0.11238 -0.122009,-0.36924 v -1.03707 h -0.227963 v -0.24081 h 0.227963 v -0.44308 h 0.292179 v 0.44308 h 0.459137 v 0.24081 z"
         style="font-family:Poppins;-inkscape-font-specification:Poppins"
         id="path1652" />
      <path
         d="m 84.966584,118.08849 q -0.247228,0 -0.449505,-0.11238 -0.199067,-0.11237 -0.314654,-0.31786 -0.112376,-0.2087 -0.112376,-0.48161 0,-0.26971 0.115587,-0.47519 0.118798,-0.2087 0.321075,-0.31787 0.202277,-0.11237 0.452716,-0.11237 0.250438,0 0.452716,0.11237 0.202277,0.10917 0.317864,0.31466 0.118798,0.20548 0.118798,0.4784 0,0.27291 -0.122009,0.48161 -0.118798,0.20549 -0.324286,0.31786 -0.205488,0.11238 -0.455926,0.11238 z m 0,-0.25686 q 0.157327,0 0.295389,-0.0739 0.138062,-0.0738 0.221542,-0.22154 0.08669,-0.14769 0.08669,-0.3596 0,-0.21191 -0.08348,-0.35961 -0.08348,-0.14769 -0.218331,-0.21833 -0.134851,-0.0738 -0.292178,-0.0738 -0.160537,0 -0.295389,0.0738 -0.131641,0.0706 -0.211909,0.21833 -0.08027,0.1477 -0.08027,0.35961 0,0.21512 0.07706,0.36281 0.08027,0.1477 0.211909,0.22154 0.131641,0.0706 0.288968,0.0706 z"
         style="font-family:Poppins;-inkscape-font-specification:Poppins"
         id="path1654" />
      <path
         d="m 86.947616,116.58586 q 0.07706,-0.15091 0.218331,-0.23439 0.144484,-0.0835 0.349972,-0.0835 v 0.30182 h -0.07706 q -0.491245,0 -0.491245,0.53298 v 0.9568 h -0.292178 v -1.75949 h 0.292178 z"
         style="font-family:Poppins;-inkscape-font-specification:Poppins"
         id="path1656" />
      <path
         d="m 88.145224,117.17343 q 0,-0.26971 0.109166,-0.47198 0.109165,-0.20549 0.2986,-0.31787 0.192645,-0.11237 0.427029,-0.11237 0.231174,0 0.401344,0.0995 0.17017,0.0995 0.253649,0.25044 v -0.32108 h 0.295389 v 1.75949 h -0.295389 v -0.32749 q -0.08669,0.15411 -0.26007,0.25686 -0.17017,0.0995 -0.398133,0.0995 -0.234385,0 -0.423819,-0.11559 -0.189435,-0.11558 -0.2986,-0.32428 -0.109166,-0.2087 -0.109166,-0.47519 z m 1.489788,0.003 q 0,-0.19907 -0.08027,-0.34676 -0.08027,-0.1477 -0.218331,-0.22476 -0.134852,-0.0803 -0.2986,-0.0803 -0.163748,0 -0.2986,0.0771 -0.134851,0.0771 -0.21512,0.22476 -0.08027,0.14769 -0.08027,0.34676 0,0.20227 0.08027,0.35318 0.08027,0.14769 0.21512,0.22796 0.134852,0.0771 0.2986,0.0771 0.163748,0 0.2986,-0.0771 0.138062,-0.0803 0.218331,-0.22796 0.08027,-0.15091 0.08027,-0.34997 z"
         style="font-family:Poppins;-inkscape-font-specification:Poppins"
         id="path1658" />
      <path
         d="m 91.118376,115.68364 v 2.37595 h -0.292178 v -2.37595 z"
         style="font-family:Poppins;-inkscape-font-specification:Poppins"
         id="path1660" />
    </g>
    <g
       aria-label="MADD     G"
       id="text4450-5"
       style="font-size:8.96933px;line-height:1.25;font-family:Roboto;-inkscape-font-specification:'Roboto, Normal';display:inline;fill:#ffffff;stroke-width:0.560584">
      <path
         d="m 84.842904,108.79891 v 6.18884 h -0.627853 v -4.9421 l -2.206455,4.9421 H 81.55116 l -2.206455,-4.92416 v 4.92416 h -0.627853 v -6.18884 h 0.663731 l 2.394811,5.36366 2.394811,-5.36366 z"
         style="font-weight:300;-inkscape-font-specification:'Poppins Light'"
         id="path1617" />
      <path
         d="m 89.901598,113.49884 h -2.852247 l -0.547129,1.48891 h -0.66373 l 2.287179,-6.18884 h 0.708577 l 2.27821,6.18884 h -0.663731 z m -0.188356,-0.52022 -1.237767,-3.39041 -1.237768,3.39041 z"
         style="font-weight:300;-inkscape-font-specification:'Poppins Light'"
         id="path1619" />
      <path
         d="m 93.97366,108.71819 q 1.040443,0 1.784897,0.37671 0.744454,0.37671 1.139105,1.08529 0.39465,0.70857 0.39465,1.68623 0,0.96869 -0.39465,1.67727 -0.394651,0.6996 -1.139105,1.07631 -0.744454,0.36775 -1.784897,0.36775 h -1.856651 v -6.26956 z m 0,5.74934 q 1.309523,0 1.991192,-0.68167 0.690638,-0.69064 0.690638,-1.91944 0,-1.23777 -0.690638,-1.92841 -0.681669,-0.6996 -1.991192,-0.6996 h -1.228798 v 5.22912 z"
         style="font-weight:300;-inkscape-font-specification:'Poppins Light'"
         id="path1621" />
      <path
         d="m 100.64684,108.69128 q 0.99559,0 1.74005,0.39465 0.74445,0.39465 1.14807,1.1122 0.41259,0.70857 0.41259,1.64138 0,0.92384 -0.41259,1.64139 -0.40362,0.71755 -1.15704,1.1122 -0.74446,0.39465 -1.73108,0.39465 h -2.358938 v -6.29647 z m -0.0987,4.96901 q 0.87003,0 1.35437,-0.47538 0.48435,-0.47537 0.48435,-1.3454 0,-0.87002 -0.48435,-1.35437 -0.48434,-0.48434 -1.35437,-0.48434 h -0.726512 v 3.65949 z"
         style="font-weight:bold;-inkscape-font-specification:'Poppins Bold'"
         id="path1623" />
      <path
         d="m 118.49579,110.68247 q -0.17041,-0.31393 -0.49331,-0.47538 -0.31393,-0.17041 -0.74445,-0.17041 -0.74446,0 -1.19293,0.49331 -0.44846,0.48434 -0.44846,1.30055 0,0.87003 0.4664,1.36334 0.47538,0.48435 1.30056,0.48435 0.56506,0 0.95075,-0.28702 0.39465,-0.28702 0.57403,-0.82518 h -1.94634 v -1.13014 h 3.33659 v 1.42613 q -0.17042,0.57403 -0.58301,1.06735 -0.40362,0.49331 -1.03147,0.79827 -0.62785,0.30495 -1.41716,0.30495 -0.93281,0 -1.66829,-0.40362 -0.72652,-0.41259 -1.13911,-1.1391 -0.40362,-0.72652 -0.40362,-1.65933 0,-0.93281 0.40362,-1.65932 0.41259,-0.73549 1.13911,-1.13911 0.72652,-0.41259 1.65933,-0.41259 1.13013,0 1.90149,0.54713 0.78034,0.54713 1.03148,1.51582 z"
         style="font-weight:bold;-inkscape-font-specification:'Poppins Bold'"
         id="path1625" />
    </g>
    <circle
       style="display:inline;fill:#f79468;fill-opacity:1;stroke-width:0.102823;stroke-linejoin:round"
       id="path29557-3-8"
       cx="109.13445"
       cy="111.94223"
       r="3.9888446" />
    <path
       style="display:inline;fill:#ffffff;fill-opacity:0.194888;stroke-width:0.0342919"
       d="m 109.311,112.72751 c -0.25187,-0.0549 -0.60341,-0.18043 -0.94303,-0.33677 -0.2169,-0.0998 -0.54867,-0.23258 -0.73728,-0.29498 -0.32627,-0.10793 -0.36832,-0.11352 -0.86586,-0.11518 l -0.52293,-0.002 0.003,-0.0857 c 0.008,-0.20149 0.0452,-0.25576 0.20363,-0.2973 0.21691,-0.0569 0.8186,-0.0543 1.18176,0.005 0.16974,0.0277 0.53238,0.10584 0.80586,0.17354 1.05815,0.26195 1.45799,0.19551 2.46077,-0.4089 0.30657,-0.18478 0.67517,-0.36404 0.74854,-0.36404 0.0551,0 0.20749,0.50817 0.22436,0.74802 0.01,0.14265 0.006,0.15008 -0.12563,0.2093 -0.0748,0.0338 -0.27983,0.14883 -0.45558,0.25571 -0.7089,0.43109 -1.02408,0.53816 -1.56582,0.53188 -0.18899,-0.002 -0.37448,-0.0107 -0.4122,-0.0189 z m -3.10072,-0.51149 c 0.002,-0.0399 0.01,-0.0481 0.0207,-0.0207 0.01,0.0248 0.009,0.0543 -0.003,0.0657 -0.0114,0.0114 -0.0195,-0.009 -0.018,-0.045 z"
       id="path8943-1" />
    <path
       style="display:inline;fill:#ffffff;fill-opacity:0.428115;stroke-width:0.0342919"
       d="m 109.79763,113.43535 c -0.10956,-0.0173 -0.33332,-0.0791 -0.49723,-0.13745 -1.29837,-0.46186 -1.45167,-0.49448 -2.32805,-0.49538 -0.76291,-8e-4 -0.6838,0.0491 -0.71868,-0.45312 l -0.0219,-0.31528 0.0993,-0.0276 c 0.0546,-0.0152 0.27681,-0.0257 0.49371,-0.0234 0.32047,0.003 0.45218,0.0216 0.70298,0.0966 0.29711,0.0889 0.41825,0.13708 1.03773,0.41259 0.99438,0.44225 1.68039,0.38288 2.67344,-0.2314 0.34571,-0.21385 0.57188,-0.3335 0.63038,-0.3335 0.0501,0 0.022,0.57111 -0.0422,0.8573 l -0.0423,0.1886 -0.34536,0.16415 c -0.18995,0.0903 -0.44567,0.19442 -0.56826,0.23141 -0.26074,0.0787 -0.78901,0.11139 -1.07366,0.0665 z"
       id="path8939-7" />
    <path
       style="display:inline;fill:#ffffff;fill-opacity:0.942492;stroke-width:0.0342919"
       d="m 108.94381,114.96126 c -0.0134,-0.0136 -0.11365,-0.0296 -0.22289,-0.0355 -0.25608,-0.0139 -0.28437,-0.0198 -0.28437,-0.0586 0,-0.0177 -0.0251,-0.0226 -0.0558,-0.0108 -0.0651,0.025 -0.27745,-0.0404 -0.36422,-0.11224 -0.033,-0.0273 -0.06,-0.0392 -0.06,-0.0265 0,0.0551 -0.55832,-0.2827 -0.64188,-0.38836 -0.023,-0.0291 -0.0423,-0.0424 -0.0429,-0.0296 -6e-4,0.0127 -0.0898,-0.0721 -0.19827,-0.18857 -0.10844,-0.11646 -0.20498,-0.21948 -0.21452,-0.22892 -0.11707,-0.11598 -0.35077,-0.51238 -0.39425,-0.66873 -0.036,-0.1294 -0.0324,-0.11902 -0.0802,-0.23435 -0.0221,-0.0534 -0.0323,-0.10994 -0.0227,-0.12553 0.0351,-0.0569 0.6163,-0.0786 0.99458,-0.0372 0.6713,0.0735 1.24327,0.21958 1.8047,0.46102 0.302,0.12987 0.64284,0.19325 1.03923,0.19325 0.50534,0 0.78883,-0.0735 1.32248,-0.34289 0.1132,-0.0571 0.20582,-0.0873 0.20582,-0.067 0,0.0585 -0.2079,0.48029 -0.32033,0.64988 -0.21014,0.31702 -0.8535,0.89943 -0.95647,0.86587 -0.0145,-0.005 -0.0263,0.005 -0.0263,0.0216 0,0.025 -0.18148,0.1195 -0.24004,0.125 -0.009,8.7e-4 -0.0522,0.0211 -0.095,0.0448 -0.0428,0.0238 -0.0917,0.0347 -0.10852,0.0243 -0.0169,-0.0105 -0.0361,-0.003 -0.0426,0.017 -0.007,0.0198 -0.051,0.0401 -0.0987,0.0452 -0.0477,0.005 -0.1081,0.0225 -0.13428,0.0387 -0.0262,0.0162 -0.13355,0.0343 -0.23859,0.0402 -0.10505,0.006 -0.26044,0.0202 -0.34532,0.0317 -0.0849,0.0115 -0.16523,0.01 -0.17857,-0.004 z"
       id="path8935-1" />
  </g>
</svg>
